<?xml version="1.0" encoding="UTF-8" standalone="no"?>
<!-- Created with Inkscape (http://www.inkscape.org/) -->

<svg
   xmlns:dc="http://purl.org/dc/elements/1.1/"
   xmlns:cc="http://creativecommons.org/ns#"
   xmlns:rdf="http://www.w3.org/1999/02/22-rdf-syntax-ns#"
   xmlns:svg="http://www.w3.org/2000/svg"
   xmlns="http://www.w3.org/2000/svg"
   xmlns:sodipodi="http://sodipodi.sourceforge.net/DTD/sodipodi-0.dtd"
   xmlns:inkscape="http://www.inkscape.org/namespaces/inkscape"
   width="210mm"
   height="297mm"
   viewBox="0 0 210 297"
   version="1.1"
   id="svg4734"
   inkscape:version="0.92.2 (5c3e80d, 2017-08-06)"
   sodipodi:docname="Right-Amazon Logo.svg"
   inkscape:export-filename="C:\Users\jsorrell414\Desktop\Right-Amazon-19px.png"
   inkscape:export-xdpi="3.0512486"
   inkscape:export-ydpi="3.0512486">
  <defs
     id="defs4728" />
  <sodipodi:namedview
     id="base"
     pagecolor="#ffffff"
     bordercolor="#666666"
     borderopacity="1.0"
     inkscape:pageopacity="0.0"
     inkscape:pageshadow="2"
     inkscape:zoom="1.979899"
     inkscape:cx="401.56191"
     inkscape:cy="599.39948"
     inkscape:document-units="mm"
     inkscape:current-layer="layer1"
     showgrid="false"
     inkscape:window-width="2880"
     inkscape:window-height="1526"
     inkscape:window-x="-11"
     inkscape:window-y="-11"
     inkscape:window-maximized="1" />
  <metadata
     id="metadata4731">
    <rdf:RDF>
      <cc:Work
         rdf:about="">
        <dc:format>image/svg+xml</dc:format>
        <dc:type
           rdf:resource="http://purl.org/dc/dcmitype/StillImage" />
        <dc:title />
      </cc:Work>
    </rdf:RDF>
  </metadata>
  <g
     inkscape:label="Layer 1"
     inkscape:groupmode="layer"
     id="layer1">
    <path
       inkscape:connector-curvature="0"
       style="fill:#ff9900;fill-opacity:1;stroke-width:1.36413229"
       d="m 103.35116,52.477781 c -11.769777,0.03609 -23.37798,2.704359 -33.986076,7.795792 5.618207,0.82833 10.070405,2.72514 10.737207,4.10039 0.615419,1.27177 -0.236702,5.46935 -2.421864,10.12707 8.064969,-3.6474 16.808113,-5.56792 25.670733,-5.58705 34.59856,-1e-4 62.64624,28.04762 62.64619,62.646177 5e-5,34.59856 -28.04763,62.64623 -62.64619,62.64618 -28.071772,5e-5 -51.830294,-18.46489 -59.795354,-43.91066 -6.927893,-19.4977 -1.176496,-58.087127 14.083605,-72.088567 2.235292,-2.15104 0.332599,-5.5702 -2.664329,-3.80996 -18.114355,10.63982 -35.405579,37.923097 -27.972708,77.854117 9.095314,33.64025 39.832188,58.39117 76.348786,58.39127 43.67598,-1e-4 79.08229,-35.40641 79.08239,-79.08238 -1e-4,-43.675967 -35.40641,-79.082276 -79.08239,-79.082379 z"
       id="path4636" />
    <path
       inkscape:connector-curvature="0"
       style="clip-rule:evenodd;fill:#ff9900;fill-rule:evenodd;stroke-width:1.36413229"
       d="m 65.121117,71.084773 c 1.695328,3.07593 -4.409312,13.65517 -7.152009,18.40952 -0.831864,1.43949 0.394468,2.24255 1.939685,1.28595 10.050767,-6.22668 14.477413,-21.57455 13.109462,-24.16347 -1.381402,-2.60949 -16.917013,-6.70101 -27.454949,-1.34416 -1.620399,0.82353 -1.570073,2.28849 0.08894,2.32556 5.488885,0.12529 17.772815,0.40886 19.468854,3.4866 z"
       id="path4646" />
  </g>
</svg>
